<svg xmlns="http://www.w3.org/2000/svg" enable-background="new 0 0 24 24" viewBox="0 0 24 24" id="post">
  <path d="M18.2783 2.9146c-.7937-.7932-1.84-1.1783-2.882-1.1646-.0134-.001-.0244-.0087-.0379-.0092-.0576-.0024-.113.0202-.1701.0291-.9354.0609-1.8544.4314-2.5672 1.1447L6.9648 8.5713c-.6932.6928-1.0837 1.5986-1.1464 2.5676-.0078.0571-.0297.1096-.0274.1692.0004.0116.0068.021.0077.0325-.0003.02-.0057.0389-.0057.0588 0 1.0684.416 2.0732 1.1719 2.8286l2.7568 2.7578c.7803.7798 1.8037 1.1694 2.8281 1.1694s2.0488-.3896 2.8291-1.1694l5.6563-5.6572c.7559-.7554 1.1719-1.7598 1.1719-2.8281s-.416-2.0732-1.1719-2.8286L18.2783 2.9146zM14.0352 4.3286c.0718-.0719.1516-.1301.231-.1887l-.1548 4.0413c-.04 1.0142-.8662 1.8403-1.8799 1.8799l-4.0421.1549c.059-.0796.1182-.1592.1896-.2306L14.0352 4.3286zM19.6211 9.9146l-5.6563 5.6572c-.7793.7783-2.0498.7803-2.8291 0L8.3789 12.814c-.1725-.1725-.3046-.3734-.4027-.5889l4.3324-.166c2.0508-.0796 3.7207-1.749 3.8008-3.8008l.1659-4.3303c.2129.0965.4144.2261.589.4006l2.7568 2.7573c.3779.3779.5859.8804.5859 1.4146S19.999 9.5366 19.6211 9.9146zM4.293 16.293l-2 2c-.3906.3906-.3906 1.0234 0 1.4141C2.4883 19.9023 2.7441 20 3 20s.5117-.0977.707-.293l2-2c.3906-.3906.3906-1.0234 0-1.4141S4.6836 15.9023 4.293 16.293zM7 22c.2559 0 .5117-.0977.707-.293l2-2c.3906-.3906.3906-1.0234 0-1.4141s-1.0234-.3906-1.4141 0l-2 2c-.3906.3906-.3906 1.0234 0 1.4141C6.4883 21.9023 6.7441 22 7 22z"></path>
</svg>
